<mxfile host="65bd71144e" pages="1">
    <diagram id="863tvQ_oTWcFZVc5Vtm-" name="Page-1">
        <mxGraphModel dx="1606" dy="480" grid="0" gridSize="10" guides="1" tooltips="1" connect="1" arrows="1" fold="1" page="0" pageScale="1" pageWidth="827" pageHeight="1169" background="none" math="0" shadow="0">
            <root>
                <mxCell id="0"/>
                <mxCell id="1" parent="0"/>
                <mxCell id="35" value="" style="rounded=0;whiteSpace=wrap;html=1;fontSize=19;strokeWidth=1;fillColor=none;dashed=1;" parent="1" vertex="1">
                    <mxGeometry x="150" y="109" width="240" height="290" as="geometry"/>
                </mxCell>
                <mxCell id="6" value="" style="endArrow=classic;html=1;" parent="1" edge="1">
                    <mxGeometry width="50" height="50" relative="1" as="geometry">
                        <mxPoint x="70" y="260" as="sourcePoint"/>
                        <mxPoint x="130" y="260" as="targetPoint"/>
                    </mxGeometry>
                </mxCell>
                <mxCell id="14" value="Actor" style="shape=umlActor;verticalLabelPosition=bottom;verticalAlign=top;html=1;outlineConnect=0;" parent="1" vertex="1">
                    <mxGeometry x="20" y="220" width="40" height="70" as="geometry"/>
                </mxCell>
                <mxCell id="28" value="" style="rounded=0;whiteSpace=wrap;html=1;fillColor=none;" parent="1" vertex="1">
                    <mxGeometry x="170" y="130" width="200" height="110" as="geometry"/>
                </mxCell>
                <mxCell id="29" value="" style="sketch=0;pointerEvents=1;shadow=0;dashed=0;html=1;strokeColor=#666666;fillColor=#f5f5f5;labelPosition=center;verticalLabelPosition=bottom;verticalAlign=top;outlineConnect=0;align=center;shape=mxgraph.office.devices.lcd_monitor;fontColor=#333333;" parent="1" vertex="1">
                    <mxGeometry x="190" y="160" width="60" height="50" as="geometry"/>
                </mxCell>
                <mxCell id="30" value="" style="rounded=0;whiteSpace=wrap;html=1;fillColor=none;" parent="1" vertex="1">
                    <mxGeometry x="170" y="270" width="200" height="110" as="geometry"/>
                </mxCell>
                <mxCell id="31" value="" style="sketch=0;pointerEvents=1;shadow=0;dashed=0;html=1;strokeColor=#666666;fillColor=#f5f5f5;labelPosition=center;verticalLabelPosition=bottom;verticalAlign=top;outlineConnect=0;align=center;shape=mxgraph.office.devices.cell_phone_iphone_standalone;fontColor=#333333;" parent="1" vertex="1">
                    <mxGeometry x="200" y="294" width="30" height="56" as="geometry"/>
                </mxCell>
                <mxCell id="32" value="&lt;font style=&quot;font-size: 19px&quot;&gt;&lt;b&gt;Front - End&lt;/b&gt;&lt;/font&gt;" style="text;html=1;resizable=0;autosize=1;align=center;verticalAlign=middle;points=[];fillColor=none;strokeColor=none;rounded=0;dashed=1;strokeWidth=8;" parent="1" vertex="1">
                    <mxGeometry x="240" y="80" width="120" height="20" as="geometry"/>
                </mxCell>
                <mxCell id="37" value="" style="shape=image;verticalLabelPosition=bottom;labelBackgroundColor=#ffffff;verticalAlign=top;aspect=fixed;imageAspect=0;image=https://upload.wikimedia.org/wikipedia/commons/thumb/1/17/GraphQL_Logo.svg/800px-GraphQL_Logo.svg.png;" parent="1" vertex="1">
                    <mxGeometry x="290" y="284" width="56" height="56" as="geometry"/>
                </mxCell>
                <mxCell id="38" value="GraphQL&lt;br style=&quot;font-size: 12px;&quot;&gt;client" style="text;html=1;resizable=0;autosize=1;align=center;verticalAlign=middle;points=[];fillColor=none;strokeColor=none;rounded=0;fontSize=12;" parent="1" vertex="1">
                    <mxGeometry x="285" y="340" width="70" height="30" as="geometry"/>
                </mxCell>
                <mxCell id="39" value="" style="shape=image;verticalLabelPosition=bottom;labelBackgroundColor=#ffffff;verticalAlign=top;aspect=fixed;imageAspect=0;image=https://upload.wikimedia.org/wikipedia/commons/thumb/1/17/GraphQL_Logo.svg/800px-GraphQL_Logo.svg.png;" parent="1" vertex="1">
                    <mxGeometry x="295" y="142" width="56" height="56" as="geometry"/>
                </mxCell>
                <mxCell id="40" value="GraphQL&lt;br style=&quot;font-size: 12px;&quot;&gt;client" style="text;html=1;resizable=0;autosize=1;align=center;verticalAlign=middle;points=[];fillColor=none;strokeColor=none;rounded=0;fontSize=12;" parent="1" vertex="1">
                    <mxGeometry x="290" y="198" width="70" height="30" as="geometry"/>
                </mxCell>
                <mxCell id="41" value="" style="endArrow=classic;html=1;fontSize=12;" parent="1" edge="1">
                    <mxGeometry width="50" height="50" relative="1" as="geometry">
                        <mxPoint x="400" y="250" as="sourcePoint"/>
                        <mxPoint x="590" y="250" as="targetPoint"/>
                    </mxGeometry>
                </mxCell>
                <mxCell id="42" value="" style="endArrow=classic;html=1;fontSize=12;textDirection=rtl;entryX=1.01;entryY=0.453;entryDx=0;entryDy=0;entryPerimeter=0;" parent="1" edge="1">
                    <mxGeometry width="50" height="50" relative="1" as="geometry">
                        <mxPoint x="590" y="290" as="sourcePoint"/>
                        <mxPoint x="402.4000000000001" y="290.3699999999999" as="targetPoint"/>
                    </mxGeometry>
                </mxCell>
                <mxCell id="43" value="" style="rounded=0;whiteSpace=wrap;html=1;fontSize=12;strokeWidth=1;fillColor=none;dashed=1;" parent="1" vertex="1">
                    <mxGeometry x="600" y="109" width="690" height="291" as="geometry"/>
                </mxCell>
                <mxCell id="44" value="Query / Mutation / Subscription" style="text;html=1;resizable=0;autosize=1;align=center;verticalAlign=middle;points=[];fillColor=none;strokeColor=none;rounded=0;dashed=1;fontSize=12;" parent="1" vertex="1">
                    <mxGeometry x="400" y="230" width="180" height="20" as="geometry"/>
                </mxCell>
                <mxCell id="45" value="Results" style="text;html=1;resizable=0;autosize=1;align=center;verticalAlign=middle;points=[];fillColor=none;strokeColor=none;rounded=0;dashed=1;fontSize=12;" parent="1" vertex="1">
                    <mxGeometry x="450" y="269" width="60" height="20" as="geometry"/>
                </mxCell>
                <mxCell id="46" value="" style="rounded=0;whiteSpace=wrap;html=1;fontSize=12;strokeWidth=1;fillColor=none;" parent="1" vertex="1">
                    <mxGeometry x="620" y="130" width="140" height="250" as="geometry"/>
                </mxCell>
                <mxCell id="48" value="" style="shape=image;verticalLabelPosition=bottom;labelBackgroundColor=#ffffff;verticalAlign=top;aspect=fixed;imageAspect=0;image=https://upload.wikimedia.org/wikipedia/commons/thumb/1/17/GraphQL_Logo.svg/800px-GraphQL_Logo.svg.png;" parent="1" vertex="1">
                    <mxGeometry x="660" y="259" width="56" height="56" as="geometry"/>
                </mxCell>
                <mxCell id="49" value="GraphQL&lt;br style=&quot;font-size: 12px&quot;&gt;server" style="text;html=1;resizable=0;autosize=1;align=center;verticalAlign=middle;points=[];fillColor=none;strokeColor=none;rounded=0;fontSize=12;" parent="1" vertex="1">
                    <mxGeometry x="653" y="314" width="70" height="30" as="geometry"/>
                </mxCell>
                <mxCell id="53" value="" style="endArrow=classic;html=1;" parent="1" edge="1">
                    <mxGeometry width="50" height="50" relative="1" as="geometry">
                        <mxPoint x="770" y="250" as="sourcePoint"/>
                        <mxPoint x="830" y="250" as="targetPoint"/>
                    </mxGeometry>
                </mxCell>
                <mxCell id="57" value="" style="endArrow=classic;html=1;" parent="1" edge="1">
                    <mxGeometry width="50" height="50" relative="1" as="geometry">
                        <mxPoint x="830" y="269" as="sourcePoint"/>
                        <mxPoint x="770" y="269" as="targetPoint"/>
                    </mxGeometry>
                </mxCell>
                <mxCell id="58" value="" style="group" parent="1" vertex="1" connectable="0">
                    <mxGeometry x="840" y="200" width="70" height="110" as="geometry"/>
                </mxCell>
                <mxCell id="51" value="" style="sketch=0;shadow=0;dashed=0;html=1;strokeColor=#666666;fillColor=#f5f5f5;labelPosition=center;verticalLabelPosition=bottom;verticalAlign=top;outlineConnect=0;align=center;shape=mxgraph.office.databases.database_mini_2;fontSize=12;fontColor=#333333;" parent="58" vertex="1">
                    <mxGeometry x="6" width="50" height="72" as="geometry"/>
                </mxCell>
                <mxCell id="52" value="Metrobus&lt;br&gt;Data Base" style="text;html=1;resizable=0;autosize=1;align=center;verticalAlign=middle;points=[];fillColor=none;strokeColor=none;rounded=0;fontSize=12;" parent="58" vertex="1">
                    <mxGeometry y="80" width="70" height="30" as="geometry"/>
                </mxCell>
                <mxCell id="61" value="" style="endArrow=classic;html=1;" parent="1" edge="1">
                    <mxGeometry width="50" height="50" relative="1" as="geometry">
                        <mxPoint x="970" y="259" as="sourcePoint"/>
                        <mxPoint x="910" y="259" as="targetPoint"/>
                    </mxGeometry>
                </mxCell>
                <mxCell id="64" value="" style="rounded=0;whiteSpace=wrap;html=1;fontSize=12;strokeWidth=1;fillColor=none;" parent="1" vertex="1">
                    <mxGeometry x="987" y="230" width="120" height="60" as="geometry"/>
                </mxCell>
                <mxCell id="65" value="Data&lt;br&gt;preprocessing" style="text;html=1;resizable=0;autosize=1;align=center;verticalAlign=middle;points=[];fillColor=none;strokeColor=none;rounded=0;fontSize=12;" parent="1" vertex="1">
                    <mxGeometry x="1002" y="247" width="90" height="30" as="geometry"/>
                </mxCell>
                <mxCell id="66" value="" style="sketch=0;html=1;dashed=0;whitespace=wrap;fillColor=#2875E2;strokeColor=#ffffff;points=[[0.005,0.63,0],[0.1,0.2,0],[0.9,0.2,0],[0.5,0,0],[0.995,0.63,0],[0.72,0.99,0],[0.5,1,0],[0.28,0.99,0]];shape=mxgraph.kubernetes.icon;prIcon=api;fontSize=12;" parent="1" vertex="1">
                    <mxGeometry x="1180" y="210" width="100" height="80" as="geometry"/>
                </mxCell>
                <mxCell id="67" value="Open Data&lt;br&gt;Metrobus CDMX" style="text;html=1;resizable=0;autosize=1;align=center;verticalAlign=middle;points=[];fillColor=none;strokeColor=none;rounded=0;fontSize=12;" parent="1" vertex="1">
                    <mxGeometry x="1180" y="297" width="100" height="30" as="geometry"/>
                </mxCell>
                <mxCell id="68" value="Types" style="text;html=1;resizable=0;autosize=1;align=center;verticalAlign=middle;points=[];fillColor=none;strokeColor=none;rounded=0;fontSize=12;" parent="1" vertex="1">
                    <mxGeometry x="663" y="182" width="50" height="20" as="geometry"/>
                </mxCell>
                <mxCell id="69" value="Querys" style="text;html=1;resizable=0;autosize=1;align=center;verticalAlign=middle;points=[];fillColor=none;strokeColor=none;rounded=0;fontSize=12;" parent="1" vertex="1">
                    <mxGeometry x="663" y="205" width="50" height="20" as="geometry"/>
                </mxCell>
                <mxCell id="73" value="&lt;font style=&quot;font-size: 19px&quot;&gt;&lt;b&gt;Back - End&lt;/b&gt;&lt;/font&gt;" style="text;html=1;resizable=0;autosize=1;align=center;verticalAlign=middle;points=[];fillColor=none;strokeColor=none;rounded=0;dashed=1;strokeWidth=8;" parent="1" vertex="1">
                    <mxGeometry x="925" y="80" width="110" height="20" as="geometry"/>
                </mxCell>
                <mxCell id="77" value="" style="endArrow=classic;html=1;" parent="1" edge="1">
                    <mxGeometry width="50" height="50" relative="1" as="geometry">
                        <mxPoint x="1120" y="250" as="sourcePoint"/>
                        <mxPoint x="1180" y="250" as="targetPoint"/>
                    </mxGeometry>
                </mxCell>
                <mxCell id="78" value="" style="endArrow=classic;html=1;" parent="1" edge="1">
                    <mxGeometry width="50" height="50" relative="1" as="geometry">
                        <mxPoint x="1180" y="269" as="sourcePoint"/>
                        <mxPoint x="1120" y="269" as="targetPoint"/>
                    </mxGeometry>
                </mxCell>
            </root>
        </mxGraphModel>
    </diagram>
</mxfile>